<?xml version="1.0" standalone="no"?>
<!DOCTYPE svg PUBLIC "-//W3C//DTD SVG 20010904//EN"
 "http://www.w3.org/TR/2001/REC-SVG-20010904/DTD/svg10.dtd">
<svg version="1.0" xmlns="http://www.w3.org/2000/svg"
 width="600.000000pt" height="600.000000pt" viewBox="0 0 600.000000 600.000000"
 preserveAspectRatio="xMidYMid meet">
<metadata>
Created by potrace 1.14, written by Peter Selinger 2001-2017
</metadata>
<g transform="translate(0.000000,600.000000) scale(0.100000,-0.100000)"
fill="#000000" stroke="none">
<path d="M2725 5990 c-85 -9 -162 -19 -195 -25 -14 -3 -41 -7 -60 -10 -19 -3
-42 -8 -50 -10 -8 -2 -27 -6 -42 -9 -113 -19 -423 -114 -523 -160 -16 -8 -52
-24 -80 -36 -248 -109 -533 -290 -745 -475 -70 -61 -259 -252 -320 -325 -264
-312 -460 -669 -579 -1056 -31 -103 -74 -276 -86 -354 -4 -25 -9 -54 -11 -65
-4 -19 -6 -38 -22 -175 -15 -132 -7 -589 12 -685 2 -11 7 -42 10 -70 4 -27 9
-57 11 -65 2 -8 7 -29 10 -47 19 -115 86 -353 132 -473 161 -417 374 -749 678
-1056 246 -249 482 -421 795 -580 52 -27 97 -49 100 -49 3 -1 27 -11 54 -23
27 -12 54 -22 60 -22 7 0 16 -4 22 -9 26 -25 378 -130 519 -155 251 -46 306
-50 570 -51 205 0 338 6 415 19 14 3 42 7 63 10 20 3 54 9 75 12 129 19 470
120 614 180 232 98 531 276 728 434 110 88 329 302 416 405 312 372 531 815
633 1283 17 75 33 160 37 187 3 28 8 57 9 66 27 140 27 646 1 789 -3 14 -7 47
-11 73 -5 42 -25 142 -55 277 -16 75 -91 300 -130 395 -93 224 -253 507 -366
650 -14 17 -28 35 -32 40 -120 164 -401 447 -546 550 -16 11 -40 30 -55 41
-40 33 -198 136 -281 184 -68 40 -248 133 -260 135 -3 0 -31 13 -64 28 -32 15
-62 27 -66 27 -5 0 -30 9 -57 21 -50 21 -252 86 -313 99 -105 24 -293 60 -345
66 -33 3 -69 8 -80 11 -33 8 -515 10 -590 3z"/>
</g>
</svg>
